# Object Export From Tinkercad Server 2015

mtllib obj.mtl

o obj_0
v -97 		-91 		0
v -95 		-91 		0
v -95 		-95 		0
v -93 		-97 		0
v -97 		-97 		0
v -93 		-95 		0
v -97 		-91 		0.1
v -95 		-95 		0.1
v -95 		-91 		0.1
v -97 		-97 		0.1
v -93 		-97 		0.1
v -93 		-95 		0.1
# 12 vertices

g group_0_11452141

usemtl color_11452141
s 0

f 1 	2 	3
f 1 	3 	5
f 4 	5 	3
f 4 	3 	6
f 7 	8 	9
f 11 	8 	10
f 12 	8 	11
f 7 	10 	8
f 11 	4 	6
f 11 	6 	12
f 10 	7 	5
f 1 	5 	7
f 11 	10 	5
f 11 	5 	4
f 2 	9 	8
f 2 	8 	3
f 2 	1 	7
f 2 	7 	9
f 6 	3 	8
f 6 	8 	12
# 20 faces

 #end of obj_0

