# Object Export From Tinkercad Server 2015

mtllib obj.mtl

o obj_0
v -95 		-90 		0.1
v -97 		-90 		0.1
v -97 		-90 		0
v -95 		-90 		0
v -95 		-84 		0
v -93 		-84 		0
v -93 		-86 		0
v -95 		-86 		0
v -97 		-80 		0
v -95 		-80 		0
v -93 		-84 		0.1
v -95 		-84 		0.1
v -95 		-86 		0.1
v -93 		-86 		0.1
v -97 		-80 		0.1
v -95 		-80 		0.1
# 16 vertices

g group_0_11452141

usemtl color_11452141
s 0

f 1 	2 	3
f 1 	3 	4
f 5 	6 	7
f 5 	7 	8
f 9 	5 	3
f 10 	5 	9
f 5 	8 	3
f 4 	3 	8
f 11 	12 	13
f 11 	13 	14
f 1 	13 	2
f 15 	2 	13
f 15 	13 	12
f 15 	12 	16
f 7 	14 	13
f 7 	13 	8
f 6 	11 	14
f 6 	14 	7
f 6 	5 	12
f 6 	12 	11
f 1 	4 	8
f 1 	8 	13
f 12 	5 	10
f 12 	10 	16
f 10 	9 	15
f 10 	15 	16
f 9 	3 	2
f 9 	2 	15
# 28 faces

 #end of obj_0

